<svg width="60" height="59" viewBox="0 0 60 59" fill="none" xmlns="http://www.w3.org/2000/svg">
<path d="M1.34253 32.2054L6.50333 33.8648C6.71599 34.9331 7.00478 35.9849 7.36608 37.0061L3.74349 40.9583L4.09633 41.6658C4.70774 42.8927 5.41824 44.0855 6.20608 45.2114L6.66041 45.8612L11.9662 44.7871C12.7021 45.6098 13.4984 46.383 14.3442 47.0999L13.2398 52.259L13.9068 52.7009C15.0656 53.4683 16.2932 54.1593 17.5535 54.754L18.281 55.0971L22.3446 51.5739C23.3946 51.9253 24.4761 52.2061 25.5745 52.413L27.2818 57.4323L28.0878 57.4887C28.7862 57.5392 29.4895 57.5721 30.2 57.5721C30.9105 57.5721 31.6137 57.5392 32.3121 57.4898L33.1181 57.4334L34.8242 52.4142C35.9226 52.2073 37.0041 51.9265 38.0541 51.5751L42.1177 55.0983L42.8452 54.7552C44.1067 54.1605 45.3331 53.4695 46.4907 52.7033L47.1589 52.2614L46.0545 47.1011C46.9003 46.3854 47.6954 45.6109 48.4325 44.7883L53.7371 45.8624L54.1914 45.2137C54.9792 44.0879 55.6897 42.8939 56.3024 41.667L56.6552 40.9595L53.0326 37.0061C53.3939 35.9849 53.6827 34.9331 53.8954 33.8648L59.0562 32.2043L59.1142 31.4204C59.1661 30.7423 59.2 30.0584 59.2 29.3673C59.2 28.6763 59.1661 27.9924 59.1154 27.3131L59.0574 26.5292L53.8966 24.8699C53.6839 23.8016 53.3951 22.7498 53.0338 21.7285L56.6564 17.7764L56.3036 17.0689C55.6922 15.842 54.9817 14.6491 54.1938 13.5233L53.7395 12.8734L48.4337 13.9476C47.6978 13.1249 46.9015 12.3516 46.0557 11.6348L47.1601 6.47564L46.4931 6.03377C45.3343 5.26636 44.1067 4.57535 42.8464 3.9807L42.1189 3.63754L38.0553 7.16078C37.0053 6.8094 35.9238 6.52853 34.8255 6.32169L33.1181 1.30242L32.3121 1.24601C30.9165 1.14847 29.4846 1.14847 28.089 1.24601L27.283 1.30242L25.5769 6.32169C24.4785 6.52853 23.397 6.8094 22.347 7.16078L18.2834 3.63636L17.556 3.97952C16.2969 4.57417 15.0692 5.26401 13.9104 6.03259L13.2422 6.47447L14.3466 11.6348C13.5008 12.3505 12.7057 13.1249 11.9686 13.9476L6.66403 12.8734L6.2097 13.5221C5.42066 14.6491 4.71016 15.8432 4.09874 17.0689L3.74591 17.7764L7.36849 21.7285C7.0072 22.7498 6.71841 23.8016 6.50574 24.8699L1.34495 26.5304L1.28695 27.3143C1.23378 27.9924 1.19995 28.6763 1.19995 29.3673C1.19995 30.0584 1.23378 30.7423 1.28453 31.4216L1.34253 32.2054ZM3.64562 28.265L8.64208 26.6573L8.76049 25.9534C8.99249 24.5584 9.36828 23.1893 9.87699 21.886L10.1368 21.2197L6.63383 17.3979C6.98304 16.7504 7.36124 16.1146 7.76483 15.4988L12.8966 16.5377L13.3606 15.9865C14.2814 14.8936 15.3169 13.8853 16.4407 12.9921L17.0074 12.5408L15.9392 7.5486C16.5736 7.15608 17.2261 6.78824 17.8919 6.44861L21.8214 9.85669L22.5065 9.60402C23.8477 9.10926 25.2555 8.74378 26.6897 8.51814L27.4135 8.40297L29.0653 3.54352C29.8169 3.50827 30.5818 3.50827 31.3334 3.54352L32.9864 8.40297L33.7102 8.51814C35.1445 8.74378 36.5522 9.10926 37.8922 9.60402L38.5773 9.85669L42.5068 6.44979C43.1726 6.78942 43.8263 7.15726 44.4595 7.54977L43.3913 12.5408L43.958 12.9921C45.0818 13.8876 46.1185 14.8948 47.0369 15.9877L47.5009 16.5389L52.6339 15.5C53.0375 16.1158 53.4157 16.7504 53.7649 17.3991L50.2619 21.2209L50.5217 21.8872C51.0304 23.1928 51.4062 24.562 51.6382 25.9557L51.7566 26.6597L56.7531 28.2662C56.7724 28.6305 56.7833 28.9972 56.7833 29.3673C56.7833 29.7375 56.7724 30.1042 56.7543 30.4697L51.7578 32.0773L51.6394 32.7813C51.4074 34.1762 51.0316 35.5454 50.5229 36.8487L50.2631 37.515L53.7661 41.3367C53.4169 41.9854 53.0387 42.6201 52.6351 43.2359L47.5033 42.197L47.0393 42.7481C46.1185 43.8411 45.083 44.8494 43.9592 45.7426L43.3925 46.1938L44.4607 51.1861C43.8275 51.5786 43.175 51.9464 42.508 52.2861L38.5785 48.8792L37.8934 49.1318C36.551 49.6266 35.1432 49.9921 33.7102 50.2177L32.9864 50.3329L31.3346 55.1923C30.583 55.2276 29.8181 55.2276 29.0665 55.1923L27.4135 50.3329L26.6897 50.2177C25.2555 49.9921 23.8477 49.6266 22.5077 49.1318L21.8226 48.8792L17.8931 52.2861C17.2273 51.9464 16.5736 51.5786 15.9404 51.1861L17.0086 46.195L16.4419 45.7437C15.3181 44.8482 14.2814 43.8411 13.363 42.7481L12.899 42.197L7.76603 43.2359C7.36245 42.6201 6.98424 41.9854 6.63504 41.3367L10.138 37.515L9.8782 36.8487C9.36949 35.543 8.9937 34.1739 8.7617 32.7801L8.64328 32.0762L3.64683 30.4697C3.62749 30.1042 3.61662 29.7375 3.61662 29.3673C3.61662 28.9972 3.62749 28.6305 3.64562 28.265Z" fill="url(#paint0_linear)"/>
<path d="M30.2 45.8201C39.5283 45.8201 47.1167 38.4399 47.1167 29.3673C47.1167 20.2948 39.5283 12.9146 30.2 12.9146C20.8717 12.9146 13.2833 20.2948 13.2833 29.3673C13.2833 38.4399 20.8717 45.8201 30.2 45.8201ZM30.2 15.2649C38.1955 15.2649 44.7 21.591 44.7 29.3673C44.7 37.1436 38.1955 43.4697 30.2 43.4697C22.2044 43.4697 15.7 37.1436 15.7 29.3673C15.7 21.591 22.2044 15.2649 30.2 15.2649Z" fill="url(#paint1_linear)"/>
<defs>
<linearGradient id="paint0_linear" x1="49.1192" y1="6.03352" x2="9.34487" y2="47.3182" gradientUnits="userSpaceOnUse">
<stop stop-color="#677EF8"/>
<stop offset="1" stop-color="#00FFF0"/>
</linearGradient>
<linearGradient id="paint1_linear" x1="42.5741" y1="16.6065" x2="15.8901" y2="38.2558" gradientUnits="userSpaceOnUse">
<stop stop-color="#677EF8"/>
<stop offset="1" stop-color="#00FFF0"/>
</linearGradient>
</defs>
</svg>
