<svg width="233" height="67" viewBox="0 0 233 67" fill="none" xmlns="http://www.w3.org/2000/svg">
<path d="M57.9 49C57.5 49 57.2 49.2 56.9 49.4C52.1 58.6 42.4 63.1 28.1 63.1C25.9 63.1 23.5 63 20.9 62.8C20.7 62.5 20.2 61.8 19.4 60.8C18.8 60 18.5 59.3 18.4 58.6C18.6 52.9 18.8 44.3 18.8 32.9C18.8 21.5 18.9 12.9 19.2 7.19998C19.8 5.29998 21.1 4.39999 23.2 4.39999C23.6 4.39999 24.1 4.4 24.7 4.5C25.4 4.6 25.9 4.59998 26.2 4.59998C27.7 4.59998 28.9 4.19999 29.7 3.29999V2.09998C29.7 1.79998 29.6 1.39998 29.3 1.19998C26.3 0.699982 22.2 0.5 17.1 0.5H12C8.39999 0.5 4.8 0.4 1.2 0C0.699997 1 0.5 1.79999 0.5 2.39999C0.5 3.29999 1.2 3.79999 2.6 3.89999C4 3.99999 5.5 4.09998 6.9 4.19998C8.5 4.59998 9.5 5.49998 9.8 7.09998C9.7 9.49998 9.7 12.5 9.9 16.3C10.1 20.8 10.3 23.7 10.3 25.2C10.3 27.5 10.2 29.9 9.8 32.2C9.9 33.4 10 36.3 10.3 41C10.5 45 10.6 48.2 10.6 50.6C10.6 53.1 10.5 55.6 10.2 58C9.7 59.5 9.3 60.4 9.2 60.6C8.6 61.6 7.8 62.1 6.8 62.1C6.3 62.3 5.1 62.4 3.2 62.4C1.6 62.4 0.5 62.7 0 63.4C0.4 64.4 0.999997 64.9 1.7 65.1C4.7 65.2 7.8 65.2 11.2 65.2C14.7 65.2 19.7 65.2 26.2 65.1C32.8 65 37.7 65 41 65C45.5 65 49.6 65.1 53.5 65.3C54.3 65.4 54.8 64.9 55 63.9C55.3 62.7 55.5 62 55.7 61.8C55.6 60.2 56.1 58 57.3 55.4C58.5 52.8 59 50.7 58.9 49.2C58.6 49.2 58.3 49.1 57.9 49ZM97.6 57.7C97.6 57.3 97.4 56.9 96.9 56.7C96.5 56.4 96 56.3 95.6 56.4C92.9 59.7 89.3 61.3 84.8 61.3C83.9 61.3 82.9 61.2 82 61.1C77.6 61 73.7 57.4 70.3 50.4C70.4 49.6 70.3 48.4 70.1 46.9C69.9 45.8 69.7 44.8 69.7 43.7C69.7 42.2 70.2 41.1 71.2 40.2C74.3 40.1 78.3 40.1 83.1 40.3C91.2 40.7 95.2 40.8 95.3 40.8L97.4 39.8C97.5 39.2 97.6 38.7 97.6 38.1C97.6 36.7 97.2 35.1 96.4 33.3L94.2 28.9C93.2 26.6 91.5 24.8 89.1 23.5C86.8 22.2 84.1 21.6 81.5 21.6C77.1 21.6 73.7 23 71.2 25.9C67.7 27.7 65.1 30.5 63.4 34.4C61.8 37.9 61.1 41.7 61.4 45.5C61.7 50.1 63.4 54.3 66.6 58.2C69.8 62.1 73.5 64.6 78 65.8C79.3 66 80.6 66.1 81.9 66.1C89.1 66.1 94.3 63.6 97.4 58.5C97.4 58.2 97.6 58 97.6 57.7ZM82.1 36.9H76.6C74.4 36.7 72.7 36.1 71.4 35.2C71.3 34.8 71.2 34.3 71.2 33.8C71.2 32.5 71.8 31.1 73.1 29.8C74.2 28.7 75.3 27.6 76.5 26.5C77.5 26 78.6 25.8 79.7 25.8C81.8 25.8 84 26.5 86.3 27.8C87.1 28.3 87.6 29.2 87.8 30.4C88 31.9 88.3 32.8 88.7 33.3C88.2 35.7 86 36.9 82.1 36.9ZM135.5 28C135.5 25.9 134.5 24.2 132.4 22.8C131.7 22.7 130.9 22.7 130.2 22.7C124.4 22.7 119.6 25.1 115.7 29.8C114.8 29.7 114.3 29.1 114.3 27.8V24.5C114.1 22.7 113.3 21.9 112 21.9C111.8 21.9 111.6 22 111.4 22.1C110.5 22.8 108.7 23.7 106 24.8C103.7 25.8 102.1 26.9 101.2 28.1C101.1 28.4 101.1 28.8 101.1 29.1C101.1 30 101.5 30.8 102.4 31.6C102.5 31.7 103.3 32.2 104.9 33.2C106.3 35.9 107 39.2 107 43C107 44.2 106.9 46.1 106.7 48.7C106.5 51.3 106.4 53.2 106.4 54.5C106.4 55.8 106.5 57 106.7 58.2C106.9 59.7 106.4 60.7 105.2 61.2C104 61.7 102.8 62.1 101.7 62.6C101.4 63.2 101.3 63.9 101.5 64.5C101.7 65.2 102.2 65.5 102.8 65.6C103.8 65.7 104.8 65.8 105.8 65.8C106.6 65.8 107.9 65.7 109.6 65.6C111.3 65.4 112.6 65.4 113.5 65.4C115.2 65.4 117 65.5 118.7 65.9C121.4 65.9 122.5 64.9 122.2 62.9C121.8 62.2 121.1 61.8 120.1 61.8C117.9 61.9 117 61.9 117.5 62C115.9 61.2 115 59.6 115 57.1C115 56.5 115 55.6 115.1 54.4C115.2 53.2 115.2 52.3 115.2 51.8C115.2 51.3 115.2 50.8 115.1 50.3C115.1 48.7 115.1 47 114.9 45.4C114.7 43 114.5 41.3 114.5 40.3C114.5 36.8 115.4 34.2 117.3 32.4C118.5 31.9 119.9 31.7 121.2 31.7C123.5 31.7 125.8 32.2 127.8 33.2C128.3 33.3 128.8 33.3 129.3 33.3C131.8 33.3 133.7 32.3 134.9 30.4C135.3 29.6 135.5 28.8 135.5 28ZM187.2 63.6C187.2 62.5 186.6 61.7 185.4 61.1C184.2 60.7 183.1 60.2 182 59.7C181.5 57.5 181.3 54.8 181.3 51.5C181.3 50.2 181.3 48.2 181.4 45.5C181.5 42.8 181.5 40.8 181.5 39.4C181.5 32.3 180.1 27 177.2 23.4C175.4 22.4 173.4 21.9 171.3 21.9C168.8 21.9 165.8 22.9 162.6 24.8C159.9 26.6 157.1 28.4 154.4 30.2C153.3 29.8 152.8 29.1 152.8 28.2C152.8 27.8 153 27 153.4 26C153.8 25 154 24.2 154 23.7C154 23.5 154 23.2 153.9 23L153.1 21.9C151.6 21.9 149.6 22.7 147.1 24.2C144.3 25.8 142.2 26.8 140.8 27C140.6 27.3 140.5 27.6 140.5 28C140.5 28.7 140.9 29.5 141.6 30.4C143.7 31 145.1 32.3 145.9 34.1C146.4 35.3 146.6 37.2 146.6 39.8C146.7 42.7 146.8 44.5 147.1 45.4C146.9 46.4 146.8 48.5 147 51.7C147.2 54.6 147.1 56.7 146.6 58C145.9 60.1 144.4 61.3 142.1 61.7C141.8 62.2 141.7 62.7 141.6 63.2C141.6 63.7 141.8 64.2 142.1 64.7L159.1 65.1L159.8 64.4C160.1 64 160.2 63.5 160.3 62.9C160.3 62.2 159.4 61.7 157.8 61.5C156.1 61.3 155.1 60.8 154.8 60C153.8 57.5 153.3 54.3 153.3 50.6C153.3 49.3 153.4 47.4 153.5 44.7C153.7 42 153.7 40 153.7 38.7C153.7 37 153.6 35.3 153.4 33.6L154.3 32.1C156.2 31.2 158.1 30.3 159.9 29.4C162.2 28.4 164.2 27.9 166 27.9C167.1 27.9 168.2 28.1 169.2 28.5C171.3 29.5 172.6 31.2 173.1 33.5C173.3 35.7 173.5 37.8 173.7 39.9C173.2 41.5 173 43.1 173 44.7C173 45.8 173.1 47.6 173.4 50C173.6 52.4 173.8 54.1 173.8 55.3C173.8 56.2 173.7 57.1 173.6 57.9C173.6 59.9 172.2 60.9 169.5 60.9C168.1 61.8 167.5 62.6 167.5 63.3C167.5 63.7 167.7 64 168 64.2C170 64.6 172 64.9 174 64.9C175.4 65 177.4 65 180 65C182.8 64.9 184.8 64.9 186.1 64.9L187 64.2C187.2 64.1 187.2 63.9 187.2 63.6ZM229.4 59.7C229 60 228.5 60.2 227.9 60.2C227.2 60.2 225.8 59.2 223.9 57.2C223.4 55.3 223.2 53.3 223.3 51.3C223.3 49.7 223.5 47.1 223.8 43.7C224.1 40.3 224.3 37.7 224.3 36.1C224.3 31.1 223.1 27 220.6 24L215.9 21.9C214.4 21.7 212.8 21.5 211.3 21.5C209.1 21.5 205.4 21.9 200.2 22.6C197.2 24.3 195.4 25.3 194.9 25.7C193.1 27.2 192.2 28.9 192.2 30.8C192.2 31.2 192.2 31.7 192.3 32.1C193.3 33.3 194.6 34.3 196.1 34.9C196.4 35 196.8 35 197.1 35C199 35 200.8 33.9 202.6 31.8C204.1 30 205.5 28.3 207 26.4C209.8 25.6 212.1 25.7 213.8 26.6C215.6 27.9 216.6 30 217 32.9C217.1 35.4 217.1 38 217.2 40.6C215.6 41.4 213.5 42.2 210.7 42.8C206.6 43.7 204.4 44.2 204 44.3C197.9 45.4 193.6 48.4 190.9 53.2C190.8 53.8 190.8 54.4 190.8 55C190.8 59.2 192.3 62.2 195.4 63.9C197.6 65.1 200.1 65.7 202.9 65.7C207.6 65.7 211.5 64.2 214.7 61.3C215.2 61 215.8 60.8 216.4 60.8C217.2 60.8 218.2 61.5 219.2 62.8C220.4 64.4 221.2 65.4 221.8 65.7C224.6 65.9 227 65.5 229 64.7C229.2 64.3 229.9 63.3 231.3 61.7C232.3 60.4 232.8 59.4 232.8 58.5C232.8 58 232.7 57.6 232.4 57.1L229.4 59.7ZM216.4 55.5C213.1 59.2 209.9 61.1 206.6 61.1C205.6 61.1 204.6 60.9 203.6 60.6C202.3 59.8 201.3 58.9 200.7 58C200.5 54.7 201.2 52 202.8 49.9C205.7 47.6 210.1 46.1 216.1 45.4L216.8 46.6L216.4 55.5Z" fill="white"/>
</svg>
