<svg width="58" height="57" viewBox="0 0 58 57" fill="none" xmlns="http://www.w3.org/2000/svg">
<path d="M58.1434 3.86667H30.1101V0.966667C30.1101 0.4321 29.678 0 29.1434 0C28.6089 0 28.1768 0.4321 28.1768 0.966667V3.86667H0.143433V44.4667H26.8099L14.9267 56.3499C14.5487 56.7279 14.5487 57.3388 14.9267 57.7168C15.1152 57.9053 15.3626 58 15.6101 58C15.8576 58 16.105 57.9053 16.2935 57.7168L28.1768 45.8335V55.1C28.1768 55.6346 28.6089 56.0667 29.1434 56.0667C29.678 56.0667 30.1101 55.6346 30.1101 55.1V45.8335L41.9933 57.7168C42.1818 57.9053 42.4293 58 42.6768 58C42.9242 58 43.1717 57.9053 43.3602 57.7168C43.7382 57.3388 43.7382 56.7279 43.3602 56.3499L31.477 44.4667H58.1434V3.86667ZM56.2101 42.5333H2.07677V5.8H56.2101V42.5333Z" fill="url(#paint0_linear)"/>
<path d="M33.0101 18.3666V10.6333H25.2767V18.3666H28.1767V23.2H13.6767V27.1643C11.4737 27.6138 9.81006 29.5655 9.81006 31.9C9.81006 34.5651 11.9783 36.7333 14.6434 36.7333C17.3085 36.7333 19.4767 34.5651 19.4767 31.9C19.4767 29.5664 17.8131 27.6138 15.6101 27.1643V25.1333H28.1767V27.1643C25.9737 27.6138 24.3101 29.5655 24.3101 31.9C24.3101 34.5651 26.4783 36.7333 29.1434 36.7333C31.8085 36.7333 33.9767 34.5651 33.9767 31.9C33.9767 29.5664 32.3131 27.6138 30.1101 27.1643V25.1333H42.6767V27.1643C40.4737 27.6138 38.81 29.5655 38.81 31.9C38.81 34.5651 40.9783 36.7333 43.6434 36.7333C46.3085 36.7333 48.4767 34.5651 48.4767 31.9C48.4767 29.5664 46.8131 27.6138 44.61 27.1643V23.2H30.1101V18.3666H33.0101ZM17.5434 31.9C17.5434 33.4988 16.2423 34.8 14.6434 34.8C13.0445 34.8 11.7434 33.4988 11.7434 31.9C11.7434 30.3011 13.0445 29 14.6434 29C16.2423 29 17.5434 30.3011 17.5434 31.9ZM32.0434 31.9C32.0434 33.4988 30.7422 34.8 29.1434 34.8C27.5445 34.8 26.2434 33.4988 26.2434 31.9C26.2434 30.3011 27.5445 29 29.1434 29C30.7422 29 32.0434 30.3011 32.0434 31.9ZM46.5434 31.9C46.5434 33.4988 45.2422 34.8 43.6434 34.8C42.0445 34.8 40.7434 33.4988 40.7434 31.9C40.7434 30.3011 42.0445 29 43.6434 29C45.2422 29 46.5434 30.3011 46.5434 31.9ZM27.2101 12.5666H31.0767V16.4333H27.2101V12.5666Z" fill="url(#paint1_linear)"/>
<defs>
<linearGradient id="paint0_linear" x1="55.5913" y1="3.95578" x2="-0.985989" y2="50.3689" gradientUnits="userSpaceOnUse">
<stop stop-color="#677EF8"/>
<stop offset="1" stop-color="#00FFF0"/>
</linearGradient>
<linearGradient id="paint1_linear" x1="45.973" y1="10.8786" x2="10.7956" y2="32.7367" gradientUnits="userSpaceOnUse">
<stop stop-color="#677EF8"/>
<stop offset="1" stop-color="#00FFF0"/>
</linearGradient>
</defs>
</svg>
